HIERARCHY
ROOT hip
{
  OFFSET 0 0 0
  CHANNELS 6 Xposition Yposition Zposition Zrotation Yrotation Xrotation
  JOINT abdomen
  {
    OFFSET 0 20.6881 -0.73152
    CHANNELS 3 Zrotation Xrotation Yrotation
    JOINT chest
    {
      OFFSET 0 11.7043 -0.48768
      CHANNELS 3 Zrotation Xrotation Yrotation
      JOINT neck
      {
        OFFSET 0 22.1894 -2.19456
        CHANNELS 3 Zrotation Xrotation Yrotation
        JOINT head
        {
          OFFSET -0.24384 7.07133 1.2192
          CHANNELS 3 Zrotation Xrotation Yrotation
          JOINT leftEye
          {
            OFFSET 4.14528 8.04674 8.04672
            CHANNELS 3 Zrotation Xrotation Yrotation
            End Site
            {
              OFFSET 1 0 0
            }
          }
          JOINT rightEye
          {
            OFFSET -3.6576 8.04674 8.04672
            CHANNELS 3 Zrotation Xrotation Yrotation
            End Site
            {
              OFFSET 1 0 0
            }
          }
        }
      }
      JOINT rCollar
      {
        OFFSET -2.68224 19.2634 -4.8768
        CHANNELS 3 Zrotation Xrotation Yrotation
        JOINT rShldr
        {
          OFFSET -8.77824 -1.95073 1.46304
          CHANNELS 3 Zrotation Xrotation Yrotation
          JOINT rForeArm
          {
            OFFSET -28.1742 -1.7115 0.48768
            CHANNELS 3 Zrotation Xrotation Yrotation
            JOINT rHand
            {
              OFFSET -22.5879 0.773209 7.07136
              CHANNELS 3 Zrotation Xrotation Yrotation
              JOINT rThumb1
              {
                OFFSET -1.2192 -0.487915 3.41376
                CHANNELS 3 Zrotation Xrotation Yrotation
                JOINT rThumb2
                {
                  OFFSET -3.37035 -0.52449 3.41376
                  CHANNELS 3 Zrotation Xrotation Yrotation
                  End Site
                  {
                    OFFSET -1.78271 -1.18214 1.43049
                  }
                }
              }
              JOINT rIndex1
              {
                OFFSET -7.75947 0.938293 5.60832
                CHANNELS 3 Zrotation Xrotation Yrotation
                JOINT rIndex2
                {
                  OFFSET -2.54057 -0.884171 1.56538
                  CHANNELS 3 Zrotation Xrotation Yrotation
                  End Site
                  {
                    OFFSET -1.62519 -0.234802 1.16502
                  }
                }
              }
              JOINT rMid1
              {
                OFFSET -8.24714 1.18213 3.41376
                CHANNELS 3 Zrotation Xrotation Yrotation
                JOINT rMid2
                {
                  OFFSET -3.10165 -0.590103 1.0647
                  CHANNELS 3 Zrotation Xrotation Yrotation
                  End Site
                  {
                    OFFSET -2.48547 -0.328903 0.83742
                  }
                }
              }
              JOINT rRing1
              {
                OFFSET -8.82822 0.546677 1.51678
                CHANNELS 3 Zrotation Xrotation Yrotation
                JOINT rRing2
                {
                  OFFSET -2.60934 -0.819778 -0.0198488
                  CHANNELS 3 Zrotation Xrotation Yrotation
                  End Site
                  {
                    OFFSET -2.33842 -0.294052 0.168128
                  }
                }
              }
              JOINT rPinky1
              {
                OFFSET -8.27202 -0.0477905 -0.4584
                CHANNELS 3 Zrotation Xrotation Yrotation
                JOINT rPinky2
                {
                  OFFSET -1.82734 -0.647385 -0.700984
                  CHANNELS 3 Zrotation Xrotation Yrotation
                  End Site
                  {
                    OFFSET -1.69225 -0.51767 -0.607171
                  }
                }
              }
            }
          }
        }
      }
      JOINT lCollar
      {
        OFFSET 2.68224 19.2634 -4.8768
        CHANNELS 3 Zrotation Xrotation Yrotation
        JOINT lShldr
        {
          OFFSET 8.77824 -1.95073 1.46304
          CHANNELS 3 Zrotation Xrotation Yrotation
          JOINT lForeArm
          {
            OFFSET 28.1742 -1.7115 0.48768
            CHANNELS 3 Zrotation Xrotation Yrotation
            JOINT lHand
            {
              OFFSET 22.5879 0.773209 7.07136
              CHANNELS 3 Zrotation Xrotation Yrotation
              JOINT lThumb1
              {
                OFFSET 1.2192 -0.487915 3.41376
                CHANNELS 3 Zrotation Xrotation Yrotation
                JOINT lThumb2
                {
                  OFFSET 3.37035 -0.52449 3.41376
                  CHANNELS 3 Zrotation Xrotation Yrotation
                  End Site
                  {
                    OFFSET 1.78271 -1.18214 1.43049
                  }
                }
              }
              JOINT lIndex1
              {
                OFFSET 7.75947 0.938293 5.60832
                CHANNELS 3 Zrotation Xrotation Yrotation
                JOINT lIndex2
                {
                  OFFSET 2.54057 -0.884171 1.56538
                  CHANNELS 3 Zrotation Xrotation Yrotation
                  End Site
                  {
                    OFFSET 1.62519 -0.234802 1.16502
                  }
                }
              }
              JOINT lMid1
              {
                OFFSET 8.24714 1.18213 3.41376
                CHANNELS 3 Zrotation Xrotation Yrotation
                JOINT lMid2
                {
                  OFFSET 3.10165 -0.590103 1.0647
                  CHANNELS 3 Zrotation Xrotation Yrotation
                  End Site
                  {
                    OFFSET 2.48547 -0.328903 0.83742
                  }
                }
              }
              JOINT lRing1
              {
                OFFSET 8.82822 0.546677 1.51678
                CHANNELS 3 Zrotation Xrotation Yrotation
                JOINT lRing2
                {
                  OFFSET 2.60934 -0.819778 -0.0198488
                  CHANNELS 3 Zrotation Xrotation Yrotation
                  End Site
                  {
                    OFFSET 2.33842 -0.294052 0.168128
                  }
                }
              }
              JOINT lPinky1
              {
                OFFSET 8.27202 -0.0477905 -0.4584
                CHANNELS 3 Zrotation Xrotation Yrotation
                JOINT lPinky2
                {
                  OFFSET 1.82734 -0.647385 -0.700984
                  CHANNELS 3 Zrotation Xrotation Yrotation
                  End Site
                  {
                    OFFSET 1.69225 -0.51767 -0.607171
                  }
                }
              }
            }
          }
        }
      }
    }
  }
  JOINT rButtock
  {
    OFFSET -8.77824 4.35084 1.2192
    CHANNELS 3 Zrotation Xrotation Yrotation
    JOINT rThigh
    {
      OFFSET 0 -1.70687 -2.19456
      CHANNELS 3 Zrotation Xrotation Yrotation
      JOINT rShin
      {
        OFFSET 0 -36.8199 0.73152
        CHANNELS 3 Zrotation Xrotation Yrotation
        JOINT rFoot
        {
          OFFSET 0.73152 -45.1104 -5.12064
          CHANNELS 3 Zrotation Xrotation Yrotation
          End Site
          {
            OFFSET -1.1221 -3.69964 12.103
          }
        }
      }
    }
  }
  JOINT lButtock
  {
    OFFSET 8.77824 4.35084 1.2192
    CHANNELS 3 Zrotation Xrotation Yrotation
    JOINT lThigh
    {
      OFFSET 0 -1.70687 -2.19456
      CHANNELS 3 Zrotation Xrotation Yrotation
      JOINT lShin
      {
        OFFSET 0 -36.8199 0.73152
        CHANNELS 3 Zrotation Xrotation Yrotation
        JOINT lFoot
        {
          OFFSET -0.73152 -45.1104 -5.12064
          CHANNELS 3 Zrotation Xrotation Yrotation
          End Site
          {
            OFFSET 1.1221 -3.69964 12.103
          }
        }
      }
    }
  }
}
MOTION
Frames:	4
Frame Time:	0.00833333
1.12774 82.4855 54.0363 0.0 0.0 0.0 -4.35906 0.0062966 -0.117468 -1.20171 0.0324847 -0.207703 -4.05366e-14 -7.95139e-16 1.49088e-16 -1.19634e-13 3.18055e-15 4.93856e-16 -0.0 0.0 0.0 -0.0 0.0 0.0 -1.93846e-14 -2.03832e-16 2.98177e-16 -4.13153e-13 -4.25523e-15 1.98785e-15 -7.12007e-12 1.98864e-12 1.08139e-13 -8.15117e-11 -2.89721e-12 3.53042e-13 -1.92244e-10 -1.97153e-12 1.05276e-12 -3.31996e-10 -3.40637e-12 1.81928e-12 -1.92236e-10 -1.96837e-12 1.0464e-12 7.73091 5.47488 0.417314 -1.92244e-10 -1.97155e-12 1.05594e-12 2.90554 0.965183 0.102902 -1.92238e-10 -1.97115e-12 1.05038e-12 10.2786 0.731801 0.0259123 -1.92252e-10 -1.97075e-12 1.05594e-12 2.22167 -0.733487 -0.20892 -1.95785e-14 -1.94514e-16 -9.93923e-17 -4.16026e-13 -4.22417e-15 1.98785e-16 -7.12628e-12 -2.26714e-12 1.17681e-13 -8.14531e-11 1.37069e-12 3.68944e-13 -1.92143e-10 -1.94759e-12 1.04322e-12 -3.31805e-10 -3.36503e-12 1.81689e-12 -1.92146e-10 -1.9465e-12 1.05912e-12 -7.73091 5.47488 -0.417314 -1.92142e-10 -1.94789e-12 1.0464e-12 -2.90554 0.965183 -0.102902 -1.92151e-10 -1.9471e-12 1.05038e-12 -10.2786 0.731801 -0.0259123 -1.92139e-10 -1.94531e-12 1.04322e-12 -2.22167 -0.733487 0.20892 -2.03217e-16 0.0 -3.88251e-19 -2.893 -1.94436 0.0304953 -0.00793848 -2.07875 -0.0647909 -0.417454 4.00219 0.126406 2.03217e-16 0.0 3.88251e-19 -3.72532 -11.2507 0.483794 -0.0143128 14.7726 -0.388795 0.54477 -3.54245 0.0125154
-0.999592 82.1755 51.3516 -8.9666 0.802 11.2758 -1.81789 -2.59263 0.177946 -1.90969 -3.01956 -0.281659 -3.19715 3.22182 -3.52247 5.6089 -1.33454 -6.63755 -0.0 0.0 0.0 -0.0 0.0 0.0 3.6256e-14 9.70204e-14 -1.11222e-14 22.4244 -7.07367 -3.45183 -3.33229 -1.37226 5.3486 0.379804 13.7467 1.73724 5.70082e-10 -8.36456e-11 -1.00931e-09 9.40195e-10 -1.16574e-10 -1.76501e-09 5.70087e-10 -8.36419e-11 -1.00932e-09 7.73091 5.47488 0.417314 5.70081e-10 -8.36448e-11 -1.00931e-09 2.90554 0.965183 0.102902 5.70086e-10 -8.36445e-11 -1.00931e-09 10.2786 0.731801 0.0259123 5.70076e-10 -8.36444e-11 -1.00931e-09 2.22167 -0.733487 -0.20892 3.60613e-14 9.70266e-14 -1.14985e-14 -22.4972 -10.2519 4.38388 2.09852 -0.735523 -3.47642 -0.372883 13.6191 -1.72456 -1.0999e-09 -7.12071e-11 7.36627e-10 -1.86446e-09 -1.2515e-10 1.30541e-09 -1.0999e-09 -7.12054e-11 7.36641e-10 -7.73091 5.47488 -0.417314 -1.09989e-09 -7.12068e-11 7.36627e-10 -2.90554 0.965183 -0.102902 -1.0999e-09 -7.12067e-11 7.36632e-10 -10.2786 0.731801 -0.0259123 -1.09989e-09 -7.12053e-11 7.36627e-10 -2.22167 -0.733487 0.20892 -2.03217e-16 0.0 -3.88251e-19 -1.49752 -2.86692 7.33092 0.00549943 -1.95196 0.0454843 -1.00529 0.826829 -7.84487 2.03217e-16 0.0 3.88251e-19 -3.41864 -10.6093 -13.6329 0.00930427 14.3151 -0.0997353 2.07881 -12.7754 16.2198
-0.999403 82.1787 51.3632 -8.9693 0.7958 11.2246 0.918064 -5.31954 0.484853 -2.66933 -6.25741 -0.364143 -6.15377 6.58723 -7.27846 11.2083 -2.68573 -13.6559 -0.0 0.0 0.0 -0.0 0.0 0.0 9.43977e-14 2.06548e-13 -2.3e-14 45.1687 -14.4679 -7.28111 -6.57982 -2.78435 11.016 -0.236194 28.2511 3.94313 1.42881e-09 -1.90972e-10 -2.09455e-09 2.37536e-09 -2.71787e-10 -3.66433e-09 1.42882e-09 -1.90968e-10 -2.09456e-09 7.73091 5.47488 0.417314 1.42881e-09 -1.9097e-10 -2.09455e-09 2.90554 0.965183 0.102902 1.42881e-09 -1.9097e-10 -2.09455e-09 10.2786 0.731801 0.0259123 1.42881e-09 -1.9097e-10 -2.09454e-09 2.22167 -0.733487 -0.20892 9.41992e-14 2.0655e-13 -2.33572e-14 -44.4731 -20.9105 9.51137 4.21967 -1.50396 -7.15262 0.231303 27.9847 -3.90623 -2.07805e-09 -1.38963e-10 1.58126e-09 -3.5139e-09 -2.43856e-10 2.79954e-09 -2.07805e-09 -1.38961e-10 1.58127e-09 -7.73091 5.47488 -0.417314 -2.07805e-09 -1.38962e-10 1.58125e-09 -2.90554 0.965183 -0.102902 -2.07806e-09 -1.38963e-10 1.58126e-09 -10.2786 0.731801 -0.0259123 -2.07804e-09 -1.38962e-10 1.58126e-09 -2.22167 -0.733487 0.20892 -2.03217e-16 0.0 -3.88251e-19 0.243069 -3.74611 15.0461 0.0191662 -1.81693 0.161844 -2.57215 -2.40935 -16.27 2.03217e-16 0.0 3.88251e-19 -2.73368 -9.2804 -28.4515 0.0392052 13.8269 0.203309 9.32134 -19.7026 34.7967
-0.994414 82.175 51.3618 -8.9517 0.8315 11.2254 3.34543 -7.78981 0.775385 -3.3497 -9.12351 -0.433887 -8.39646 9.51845 -10.6997 15.9181 -3.7894 -19.9527 -0.0 0.0 0.0 -0.0 0.0 0.0 1.47537e-13 2.91469e-13 -3.39631e-14 64.5794 -20.902 -11.0092 -9.23787 -3.97353 16.0809 -2.04806 41.0625 6.72076 2.09473e-09 -2.46994e-10 -3.03004e-09 3.48458e-09 -3.42908e-10 -5.29868e-09 2.09473e-09 -2.46989e-10 -3.03005e-09 7.73091 5.47488 0.417314 2.09473e-09 -2.46991e-10 -3.03004e-09 2.90554 0.965183 0.102902 2.09473e-09 -2.46991e-10 -3.03004e-09 10.2786 0.731801 0.0259123 2.09473e-09 -2.46992e-10 -3.03003e-09 2.22167 -0.733487 -0.20892 1.47341e-13 2.91469e-13 -3.42966e-14 -62.2195 -29.9788 14.9836 6.02929 -2.1741 -10.436 2.00061 40.6847 -6.63708 -2.9154e-09 -2.09726e-10 2.2078e-09 -4.92978e-09 -3.68719e-10 3.9126e-09 -2.9154e-09 -2.09723e-10 2.20781e-09 -7.73091 5.47488 -0.417314 -2.9154e-09 -2.09725e-10 2.20779e-09 -2.90554 0.965183 -0.102902 -2.91541e-09 -2.09726e-10 2.20779e-09 -10.2786 0.731801 -0.0259123 -2.9154e-09 -2.09725e-10 2.2078e-09 -2.22167 -0.733487 0.20892 -2.03217e-16 0.0 -3.88251e-19 1.97731 -4.43682 21.9734 0.0309104 -1.69836 0.265987 -4.76439 -5.03207 -23.8821 2.03217e-16 0.0 3.88251e-19 -1.71443 -7.68436 -41.5904 0.0707816 13.3991 0.474899 19.4633 -21.4959 52.2881
